<svg width="250" height="250" viewBox="0 0 250 250" fill="none" xmlns="http://www.w3.org/2000/svg">
<rect width="250" height="250" fill="#2A2828"/>
<mask id="path-2-outside-1_448_44" maskUnits="userSpaceOnUse" x="32" y="30" width="187" height="190" fill="black">
<rect fill="white" x="32" y="30" width="187" height="190"/>
<path d="M54.3333 139.091C54.3333 101.491 56.3311 36.5455 125.075 33.1273C166.029 33.1273 198.906 56.2565 193.278 131.731C193.264 131.912 193.253 132.067 193.245 132.197C193.197 132.904 193.214 132.859 193.245 132.197C193.579 124.826 195.431 41.0371 125.075 69.6471C106.094 61.1258 91.4593 64.7778 91.4593 64.7778C53.1841 70.8645 61.0878 119.558 54.3333 139.091Z"/>
<path fill-rule="evenodd" clip-rule="evenodd" d="M125.047 32L125.075 32C145.756 32 164.593 37.8454 177.515 53.407C190.414 68.9417 197.229 93.9362 194.404 131.815C194.395 131.934 194.388 132.042 194.381 132.138C194.378 132.181 194.375 132.222 194.372 132.26C194.365 132.424 194.358 132.552 194.353 132.642C194.35 132.688 194.347 132.727 194.345 132.757L194.341 132.806C194.341 132.814 194.339 132.829 194.337 132.848C194.336 132.857 194.333 132.876 194.329 132.901C194.328 132.906 194.327 132.913 194.325 132.922C194.323 132.933 194.32 132.946 194.317 132.961C194.313 132.978 194.298 133.042 194.268 133.12C194.254 133.154 194.218 133.245 194.148 133.347C194.112 133.399 193.886 133.735 193.416 133.82C192.805 133.93 192.427 133.539 192.313 133.39C192.199 133.238 192.152 133.095 192.139 133.054C192.107 132.954 192.097 132.87 192.094 132.851C192.09 132.819 192.088 132.793 192.088 132.779C192.085 132.737 192.085 132.702 192.085 132.696C192.085 132.684 192.086 132.671 192.086 132.661C192.086 132.653 192.087 132.645 192.087 132.64C192.087 132.622 192.088 132.602 192.089 132.578C192.09 132.563 192.091 132.546 192.092 132.528C192.097 132.438 192.105 132.307 192.117 132.133C192.284 128.43 192.802 105.905 184.639 87.8935C180.566 78.905 174.385 71.1593 165.029 67.3582C155.677 63.5585 142.922 63.6069 125.501 70.6911L125.053 70.8734L124.611 70.6752C115.278 66.485 107.026 65.2929 101.121 65.1439C98.1677 65.0694 95.8021 65.2558 94.1834 65.4588C93.3742 65.5603 92.752 65.6659 92.3369 65.7449C92.1293 65.7844 91.9736 65.8172 91.8721 65.8396C91.8214 65.8508 91.7843 65.8593 91.7611 65.8648L91.7367 65.8706L91.7334 65.8714L91.6857 65.8833L91.6371 65.891C82.3327 67.3707 75.8988 71.4191 71.3313 76.9287C66.7397 82.4673 63.9819 89.5469 62.1752 97.1519C60.4367 104.47 59.5979 112.184 58.8165 119.37C58.7857 119.653 58.755 119.935 58.7244 120.217C57.9219 127.582 57.1401 134.43 55.4012 139.459L53.2037 139.091C53.2037 120.31 53.6913 94.4528 62.8854 72.8502C67.4928 62.0247 74.3006 52.2296 84.3555 44.9272C94.4143 37.622 107.649 32.8651 125.019 32.0014L125.047 32ZM91.2378 63.6716L91.2427 63.6704C91.276 63.6626 91.3234 63.6517 91.3845 63.6382C91.5067 63.6112 91.6839 63.5739 91.9136 63.5302C92.373 63.4428 93.0424 63.3296 93.9017 63.2219C95.6202 63.0064 98.0996 62.8124 101.178 62.8901C107.241 63.0431 115.63 64.2502 125.096 68.4224C142.631 61.3791 155.888 61.21 165.881 65.27C175.955 69.363 182.482 77.6608 186.698 86.9645C189.578 93.3194 191.405 100.199 192.556 106.647C191.336 82.8442 185.154 66.1408 175.775 54.8454C163.432 39.9807 145.364 34.2598 125.103 34.2545C108.115 35.1037 95.3297 39.7455 85.685 46.7501C76.0311 53.7612 69.45 63.1933 64.9649 73.7315C57.6928 90.8182 55.9682 110.712 55.5746 127.652C55.8986 125.237 56.1853 122.663 56.4783 119.973C56.5105 119.677 56.5428 119.38 56.5752 119.082C57.3527 111.93 58.2049 104.091 59.9769 96.6318C61.823 88.861 64.688 81.4053 69.5905 75.4916C74.5097 69.5578 81.4278 65.2411 91.2378 63.6716Z"/>
<path fill-rule="evenodd" clip-rule="evenodd" d="M65.5109 176.29C60.9201 173.292 58.8747 169.153 57.9023 166.221C53.7409 153.674 52.1201 143.554 55.6264 135.24C58.2713 128.969 63.6469 124.783 69.4361 122.097C75.2225 119.413 81.5337 118.174 86.2781 117.855C102.014 116.333 113.136 124.568 115.66 135.459C119.502 152.038 116.542 162.594 110.407 169.266C104.333 175.874 95.3566 178.43 87.6821 179.524C77.0783 181.037 70.1062 179.291 65.5109 176.29ZM87.3216 177.293C94.8383 176.221 103.179 173.763 108.729 167.726C114.219 161.754 117.192 152.035 113.459 135.928C111.245 126.374 101.362 118.658 86.5215 120.1L86.5046 120.102L86.4876 120.103C81.9601 120.405 75.9191 121.594 70.4201 124.144C64.917 126.697 60.0684 130.559 57.7117 136.147C54.5495 143.644 55.9005 153.05 60.0463 165.549C60.9217 168.189 62.7219 171.798 66.7238 174.411C70.7212 177.022 77.089 178.752 87.3216 177.293Z"/>
<path fill-rule="evenodd" clip-rule="evenodd" d="M184.437 176.289C189.028 173.291 191.075 169.153 192.048 166.221C196.212 153.674 197.835 143.554 194.33 135.24C191.687 128.969 186.312 124.783 180.523 122.098C174.737 119.414 168.426 118.174 163.682 117.856C147.946 116.334 136.821 124.568 134.295 135.459C130.449 152.038 133.408 162.593 139.541 169.266C145.614 175.873 154.59 178.429 162.264 179.524C172.868 181.036 179.841 179.29 184.437 176.289ZM162.625 177.292C155.109 176.22 146.769 173.762 141.22 167.725C135.73 161.754 132.76 152.035 136.496 135.928C138.712 126.374 148.596 118.659 163.437 120.101L163.454 120.103L163.471 120.104C167.999 120.406 174.04 121.594 179.539 124.145C185.041 126.698 189.889 130.559 192.245 136.147C195.405 143.644 194.052 153.049 189.904 165.549C189.028 168.188 187.227 171.797 183.224 174.41C179.226 177.021 172.858 178.751 162.625 177.292Z"/>
<path d="M138 128.828H112L113 131.083H136.5L138 128.828Z"/>
<path fill-rule="evenodd" clip-rule="evenodd" d="M59.62 186.436C45.4705 186.436 34 194.046 34 203.432V205.86H34.0285C34.0096 206.128 34 206.398 34 206.669V218H36.44V206.669C36.44 198.177 46.818 191.292 59.62 191.292H191.38C204.182 191.292 214.56 198.177 214.56 206.669V218H217V203.432C217 194.046 205.53 186.436 191.38 186.436H59.62ZM212.418 196.967C208.737 191.705 200.701 188.055 191.38 188.055H59.62C50.299 188.055 42.263 191.705 38.582 196.967C43.2106 192.559 50.9074 189.674 59.62 189.674H191.38C200.093 189.674 207.789 192.559 212.418 196.967Z"/>
</mask>
<path d="M54.3333 139.091C54.3333 101.491 56.3311 36.5455 125.075 33.1273C166.029 33.1273 198.906 56.2565 193.278 131.731C193.264 131.912 193.253 132.067 193.245 132.197C193.197 132.904 193.214 132.859 193.245 132.197C193.579 124.826 195.431 41.0371 125.075 69.6471C106.094 61.1258 91.4593 64.7778 91.4593 64.7778C53.1841 70.8645 61.0878 119.558 54.3333 139.091Z" fill="#E8E8E8"/>
<path fill-rule="evenodd" clip-rule="evenodd" d="M125.047 32L125.075 32C145.756 32 164.593 37.8454 177.515 53.407C190.414 68.9417 197.229 93.9362 194.404 131.815C194.395 131.934 194.388 132.042 194.381 132.138C194.378 132.181 194.375 132.222 194.372 132.26C194.365 132.424 194.358 132.552 194.353 132.642C194.35 132.688 194.347 132.727 194.345 132.757L194.341 132.806C194.341 132.814 194.339 132.829 194.337 132.848C194.336 132.857 194.333 132.876 194.329 132.901C194.328 132.906 194.327 132.913 194.325 132.922C194.323 132.933 194.32 132.946 194.317 132.961C194.313 132.978 194.298 133.042 194.268 133.12C194.254 133.154 194.218 133.245 194.148 133.347C194.112 133.399 193.886 133.735 193.416 133.82C192.805 133.93 192.427 133.539 192.313 133.39C192.199 133.238 192.152 133.095 192.139 133.054C192.107 132.954 192.097 132.87 192.094 132.851C192.09 132.819 192.088 132.793 192.088 132.779C192.085 132.737 192.085 132.702 192.085 132.696C192.085 132.684 192.086 132.671 192.086 132.661C192.086 132.653 192.087 132.645 192.087 132.64C192.087 132.622 192.088 132.602 192.089 132.578C192.09 132.563 192.091 132.546 192.092 132.528C192.097 132.438 192.105 132.307 192.117 132.133C192.284 128.43 192.802 105.905 184.639 87.8935C180.566 78.905 174.385 71.1593 165.029 67.3582C155.677 63.5585 142.922 63.6069 125.501 70.6911L125.053 70.8734L124.611 70.6752C115.278 66.485 107.026 65.2929 101.121 65.1439C98.1677 65.0694 95.8021 65.2558 94.1834 65.4588C93.3742 65.5603 92.752 65.6659 92.3369 65.7449C92.1293 65.7844 91.9736 65.8172 91.8721 65.8396C91.8214 65.8508 91.7843 65.8593 91.7611 65.8648L91.7367 65.8706L91.7334 65.8714L91.6857 65.8833L91.6371 65.891C82.3327 67.3707 75.8988 71.4191 71.3313 76.9287C66.7397 82.4673 63.9819 89.5469 62.1752 97.1519C60.4367 104.47 59.5979 112.184 58.8165 119.37C58.7857 119.653 58.755 119.935 58.7244 120.217C57.9219 127.582 57.1401 134.43 55.4012 139.459L53.2037 139.091C53.2037 120.31 53.6913 94.4528 62.8854 72.8502C67.4928 62.0247 74.3006 52.2296 84.3555 44.9272C94.4143 37.622 107.649 32.8651 125.019 32.0014L125.047 32ZM91.2378 63.6716L91.2427 63.6704C91.276 63.6626 91.3234 63.6517 91.3845 63.6382C91.5067 63.6112 91.6839 63.5739 91.9136 63.5302C92.373 63.4428 93.0424 63.3296 93.9017 63.2219C95.6202 63.0064 98.0996 62.8124 101.178 62.8901C107.241 63.0431 115.63 64.2502 125.096 68.4224C142.631 61.3791 155.888 61.21 165.881 65.27C175.955 69.363 182.482 77.6608 186.698 86.9645C189.578 93.3194 191.405 100.199 192.556 106.647C191.336 82.8442 185.154 66.1408 175.775 54.8454C163.432 39.9807 145.364 34.2598 125.103 34.2545C108.115 35.1037 95.3297 39.7455 85.685 46.7501C76.0311 53.7612 69.45 63.1933 64.9649 73.7315C57.6928 90.8182 55.9682 110.712 55.5746 127.652C55.8986 125.237 56.1853 122.663 56.4783 119.973C56.5105 119.677 56.5428 119.38 56.5752 119.082C57.3527 111.93 58.2049 104.091 59.9769 96.6318C61.823 88.861 64.688 81.4053 69.5905 75.4916C74.5097 69.5578 81.4278 65.2411 91.2378 63.6716Z" fill="white"/>
<path fill-rule="evenodd" clip-rule="evenodd" d="M65.5109 176.29C60.9201 173.292 58.8747 169.153 57.9023 166.221C53.7409 153.674 52.1201 143.554 55.6264 135.24C58.2713 128.969 63.6469 124.783 69.4361 122.097C75.2225 119.413 81.5337 118.174 86.2781 117.855C102.014 116.333 113.136 124.568 115.66 135.459C119.502 152.038 116.542 162.594 110.407 169.266C104.333 175.874 95.3566 178.43 87.6821 179.524C77.0783 181.037 70.1062 179.291 65.5109 176.29ZM87.3216 177.293C94.8383 176.221 103.179 173.763 108.729 167.726C114.219 161.754 117.192 152.035 113.459 135.928C111.245 126.374 101.362 118.658 86.5215 120.1L86.5046 120.102L86.4876 120.103C81.9601 120.405 75.9191 121.594 70.4201 124.144C64.917 126.697 60.0684 130.559 57.7117 136.147C54.5495 143.644 55.9005 153.05 60.0463 165.549C60.9217 168.189 62.7219 171.798 66.7238 174.411C70.7212 177.022 77.089 178.752 87.3216 177.293Z" fill="white"/>
<path fill-rule="evenodd" clip-rule="evenodd" d="M184.437 176.289C189.028 173.291 191.075 169.153 192.048 166.221C196.212 153.674 197.835 143.554 194.33 135.24C191.687 128.969 186.312 124.783 180.523 122.098C174.737 119.414 168.426 118.174 163.682 117.856C147.946 116.334 136.821 124.568 134.295 135.459C130.449 152.038 133.408 162.593 139.541 169.266C145.614 175.873 154.59 178.429 162.264 179.524C172.868 181.036 179.841 179.29 184.437 176.289ZM162.625 177.292C155.109 176.22 146.769 173.762 141.22 167.725C135.73 161.754 132.76 152.035 136.496 135.928C138.712 126.374 148.596 118.659 163.437 120.101L163.454 120.103L163.471 120.104C167.999 120.406 174.04 121.594 179.539 124.145C185.041 126.698 189.889 130.559 192.245 136.147C195.405 143.644 194.052 153.049 189.904 165.549C189.028 168.188 187.227 171.797 183.224 174.41C179.226 177.021 172.858 178.751 162.625 177.292Z" fill="white"/>
<path d="M138 128.828H112L113 131.083H136.5L138 128.828Z" fill="white"/>
<path fill-rule="evenodd" clip-rule="evenodd" d="M59.62 186.436C45.4705 186.436 34 194.046 34 203.432V205.86H34.0285C34.0096 206.128 34 206.398 34 206.669V218H36.44V206.669C36.44 198.177 46.818 191.292 59.62 191.292H191.38C204.182 191.292 214.56 198.177 214.56 206.669V218H217V203.432C217 194.046 205.53 186.436 191.38 186.436H59.62ZM212.418 196.967C208.737 191.705 200.701 188.055 191.38 188.055H59.62C50.299 188.055 42.263 191.705 38.582 196.967C43.2106 192.559 50.9074 189.674 59.62 189.674H191.38C200.093 189.674 207.789 192.559 212.418 196.967Z" fill="white"/>
<path d="M88.0942 178.313L87.9139 177.197L86.7293 177.389L86.9095 178.504L88.0942 178.313ZM163.038 178.501L163.218 177.388L162.033 177.196L161.853 178.31L163.038 178.501ZM54.3333 139.091L53.1333 139.091L55.4674 139.483L54.3333 139.091ZM125.075 33.1273L125.075 31.9273L125.045 31.9273L125.015 31.9288L125.075 33.1273ZM193.278 131.731L192.081 131.642L192.081 131.642L193.278 131.731ZM91.4593 64.7778L91.6478 65.9629L91.6993 65.9547L91.7499 65.9421L91.4593 64.7778ZM125.075 69.6471L124.583 70.7419L125.052 70.952L125.527 70.7587L125.075 69.6471ZM125.075 32L125.075 30.8L125.075 32ZM125.047 32L125.047 30.8L125.017 30.8L124.987 30.8015L125.047 32ZM177.515 53.407L178.438 52.6404L178.438 52.6404L177.515 53.407ZM194.404 131.815L193.208 131.725L193.208 131.725L194.404 131.815ZM194.381 132.138L195.578 132.222L195.578 132.222L194.381 132.138ZM194.372 132.26L193.175 132.179L193.174 132.192L193.174 132.206L194.372 132.26ZM194.353 132.642L193.155 132.571L193.155 132.571L194.353 132.642ZM194.345 132.757L195.541 132.856L195.542 132.846L194.345 132.757ZM194.341 132.806L195.536 132.92L195.537 132.912L195.537 132.905L194.341 132.806ZM194.337 132.848L193.146 132.698L193.146 132.698L194.337 132.848ZM194.329 132.901L193.146 132.697L193.146 132.697L194.329 132.901ZM194.325 132.922L195.503 133.148L195.504 133.147L194.325 132.922ZM194.317 132.961L195.486 133.229L195.486 133.229L194.317 132.961ZM194.268 133.12L193.15 132.683L193.15 132.683L194.268 133.12ZM194.148 133.347L193.158 132.668L193.158 132.668L194.148 133.347ZM193.416 133.82L193.203 132.639L193.203 132.639L193.416 133.82ZM192.313 133.39L193.271 132.666L193.271 132.666L192.313 133.39ZM192.139 133.054L193.282 132.688L193.282 132.687L192.139 133.054ZM192.094 132.851L193.285 132.704L193.285 132.702L192.094 132.851ZM192.088 132.779L190.89 132.854L190.89 132.855L192.088 132.779ZM192.085 132.696L193.285 132.709L193.285 132.705L192.085 132.696ZM192.086 132.661L193.286 132.697L193.286 132.697L192.086 132.661ZM192.087 132.64L190.888 132.595L190.888 132.595L192.087 132.64ZM192.089 132.578L190.891 132.519L190.891 132.519L192.089 132.578ZM192.092 132.528L193.29 132.593L193.29 132.592L192.092 132.528ZM192.117 132.133L193.314 132.214L193.315 132.201L193.315 132.187L192.117 132.133ZM184.639 87.8935L185.732 87.3982L185.732 87.3982L184.639 87.8935ZM165.029 67.3582L164.577 68.4699L164.577 68.4699L165.029 67.3582ZM125.501 70.6911L125.953 71.8027L125.953 71.8027L125.501 70.6911ZM125.053 70.8734L124.561 71.9681L125.03 72.1783L125.505 71.985L125.053 70.8734ZM124.611 70.6752L125.103 69.5804L125.103 69.5804L124.611 70.6752ZM101.121 65.1439L101.151 63.9443L101.151 63.9443L101.121 65.1439ZM94.1834 65.4588L94.3327 66.6495L94.3327 66.6495L94.1834 65.4588ZM92.3369 65.7449L92.5612 66.9237L92.5612 66.9237L92.3369 65.7449ZM91.7611 65.8648L91.4863 64.6967L91.483 64.6975L91.7611 65.8648ZM91.7367 65.8706L91.4586 64.7033L91.4539 64.7044L91.7367 65.8706ZM91.7334 65.8714L91.4506 64.7052L91.4428 64.7071L91.7334 65.8714ZM91.6857 65.8833L91.8741 67.0684L91.9256 67.0602L91.9762 67.0476L91.6857 65.8833ZM91.6371 65.891L91.4487 64.7059L91.4486 64.7059L91.6371 65.891ZM71.3313 76.9287L72.2551 77.6946L72.2551 77.6946L71.3313 76.9287ZM62.1752 97.1519L63.3427 97.4293L63.3427 97.4293L62.1752 97.1519ZM58.8165 119.37L60.0094 119.5L60.0094 119.5L58.8165 119.37ZM58.7244 120.217L59.9173 120.347L59.9173 120.347L58.7244 120.217ZM55.4012 139.459L55.2031 140.642L56.2037 140.81L56.5353 139.851L55.4012 139.459ZM53.2037 139.091L52.0037 139.091L52.0037 140.107L53.0056 140.274L53.2037 139.091ZM62.8854 72.8502L63.9896 73.3201L63.9896 73.3201L62.8854 72.8502ZM84.3555 44.9272L85.0607 45.8981L85.0607 45.8981L84.3555 44.9272ZM125.019 32.0014L124.959 30.8029L124.959 30.8029L125.019 32.0014ZM91.2427 63.6704L90.968 62.5023L90.9647 62.5031L91.2427 63.6704ZM91.2378 63.6716L91.4274 64.8565L91.4719 64.8494L91.5158 64.8389L91.2378 63.6716ZM91.3845 63.6382L91.126 62.4664L91.126 62.4664L91.3845 63.6382ZM91.9136 63.5302L91.6892 62.3514L91.6892 62.3514L91.9136 63.5302ZM93.9017 63.2219L93.7524 62.0312L93.7524 62.0312L93.9017 63.2219ZM101.178 62.8901L101.208 61.6905L101.208 61.6905L101.178 62.8901ZM125.096 68.4224L124.612 69.5205L125.074 69.7242L125.543 69.5359L125.096 68.4224ZM165.881 65.27L166.332 64.1583L166.332 64.1583L165.881 65.27ZM186.698 86.9645L185.605 87.4599L185.605 87.4599L186.698 86.9645ZM192.556 106.647L191.375 106.858L193.754 106.585L192.556 106.647ZM175.775 54.8454L174.852 55.612L174.852 55.612L175.775 54.8454ZM125.103 34.2545L125.103 33.0545L125.073 33.0545L125.043 33.056L125.103 34.2545ZM85.685 46.7501L84.9798 45.7791L84.9798 45.7791L85.685 46.7501ZM64.9649 73.7315L66.0691 74.2014L66.0691 74.2014L64.9649 73.7315ZM55.5746 127.652L54.375 127.624L56.764 127.812L55.5746 127.652ZM56.4783 119.973L55.2854 119.843L55.2854 119.843L56.4783 119.973ZM56.5752 119.082L57.7682 119.212L57.7682 119.212L56.5752 119.082ZM59.9769 96.6318L58.8094 96.3545L58.8094 96.3545L59.9769 96.6318ZM69.5905 75.4916L68.6667 74.7258L69.5905 75.4916ZM57.9023 166.221L56.7633 166.599L56.7633 166.599L57.9023 166.221ZM65.5109 176.29L66.1671 175.285L65.5109 176.29ZM55.6264 135.24L54.5207 134.773L54.5207 134.773L55.6264 135.24ZM69.4361 122.097L69.9411 123.186L69.9411 123.186L69.4361 122.097ZM86.2781 117.855L86.3585 119.052L86.3761 119.051L86.3936 119.049L86.2781 117.855ZM115.66 135.459L116.829 135.188L116.829 135.188L115.66 135.459ZM110.407 169.266L111.291 170.078L111.291 170.078L110.407 169.266ZM87.6821 179.524L87.5127 178.336L87.5127 178.336L87.6821 179.524ZM87.3216 177.293L87.1522 176.105L87.1522 176.105L87.3216 177.293ZM108.729 167.726L109.612 168.538L109.612 168.538L108.729 167.726ZM113.459 135.928L114.628 135.657L114.628 135.657L113.459 135.928ZM86.5215 120.1L86.6372 121.295L86.6376 121.295L86.5215 120.1ZM86.5046 120.102L86.5847 121.299L86.6025 121.298L86.6203 121.296L86.5046 120.102ZM86.4876 120.103L86.5675 121.3L86.5678 121.3L86.4876 120.103ZM70.4201 124.144L69.9151 123.056L69.9151 123.056L70.4201 124.144ZM57.7117 136.147L58.8174 136.613L58.8174 136.613L57.7117 136.147ZM60.0463 165.549L58.9073 165.927L58.9073 165.927L60.0463 165.549ZM66.7238 174.411L66.0676 175.416L66.0676 175.416L66.7238 174.411ZM192.048 166.221L193.187 166.599L193.187 166.599L192.048 166.221ZM184.437 176.289L185.093 177.294L185.093 177.294L184.437 176.289ZM194.33 135.24L195.436 134.774L195.436 134.774L194.33 135.24ZM180.523 122.098L181.028 121.009L181.028 121.009L180.523 122.098ZM163.682 117.856L163.566 119.05L163.584 119.052L163.601 119.053L163.682 117.856ZM134.295 135.459L133.126 135.188L133.126 135.188L134.295 135.459ZM139.541 169.266L140.424 168.454L140.424 168.454L139.541 169.266ZM162.264 179.524L162.434 178.336L162.434 178.336L162.264 179.524ZM162.625 177.292L162.795 176.104L162.795 176.104L162.625 177.292ZM141.22 167.725L142.103 166.913L142.103 166.913L141.22 167.725ZM136.496 135.928L135.327 135.657L135.327 135.657L136.496 135.928ZM163.437 120.101L163.321 121.295L163.322 121.295L163.437 120.101ZM163.454 120.103L163.339 121.297L163.356 121.299L163.374 121.3L163.454 120.103ZM163.471 120.104L163.391 121.301L163.391 121.301L163.471 120.104ZM179.539 124.145L179.034 125.234L179.034 125.234L179.539 124.145ZM192.245 136.147L191.139 136.613L191.139 136.613L192.245 136.147ZM189.904 165.549L191.043 165.927L191.043 165.927L189.904 165.549ZM183.224 174.41L182.568 173.406L182.568 173.406L183.224 174.41ZM112 128.828V127.628H110.155L110.903 129.315L112 128.828ZM138 128.828L138.999 129.493L140.24 127.628H138V128.828ZM136.5 131.083V132.283H137.143L137.499 131.747L136.5 131.083ZM113 131.083L111.903 131.569L112.22 132.283H113V131.083ZM34 205.86H32.8V207.06H34V205.86ZM34.0285 205.86L35.2256 205.945L35.3163 204.66H34.0285V205.86ZM34 218H32.8V219.2H34V218ZM36.44 218V219.2H37.64V218H36.44ZM214.56 218H213.36V219.2H214.56V218ZM217 218V219.2H218.2V218H217ZM212.418 196.967L211.59 197.836L213.401 196.279L212.418 196.967ZM38.582 196.967L37.5987 196.279L39.4096 197.836L38.582 196.967ZM55.5333 139.091C55.5333 120.27 56.0454 94.8695 65.0293 73.7608C69.5104 63.2321 76.0841 53.8116 85.7254 46.8096C95.3628 39.8104 108.143 35.1706 125.135 34.3258L125.015 31.9288C107.634 32.793 94.3865 37.5533 84.3151 44.8677C74.2476 52.1792 67.4324 61.986 62.821 72.8209C53.6201 94.4394 53.1333 120.311 53.1333 139.091L55.5333 139.091ZM125.075 34.3273C145.335 34.3273 163.391 40.0429 175.722 54.8928C188.075 69.7706 194.884 94.0553 192.081 131.642L194.474 131.82C197.3 93.9322 190.484 68.915 177.568 53.3596C164.628 37.7762 145.768 31.9273 125.075 31.9273L125.075 34.3273ZM55.4674 139.483C57.2097 134.445 57.9922 127.588 58.7943 120.225C59.6033 112.799 60.4378 104.77 62.2435 97.1692C64.0489 89.5699 66.8032 82.5025 71.3847 76.976C75.9408 71.4802 82.3593 67.44 91.6478 65.9629L91.2709 63.5927C81.4218 65.1589 74.475 69.4879 69.5371 75.4443C64.6245 81.3701 61.756 88.8381 59.9085 96.6145C58.0615 104.389 57.2133 112.577 56.4084 119.965C55.5967 127.416 54.8342 133.971 53.1992 138.699L55.4674 139.483ZM91.4593 64.7778C91.7499 65.9421 91.7494 65.9422 91.7491 65.9423C91.749 65.9423 91.7487 65.9424 91.7486 65.9424C91.7484 65.9425 91.7484 65.9425 91.7487 65.9424C91.7491 65.9423 91.7505 65.942 91.7527 65.9414C91.7572 65.9403 91.7652 65.9384 91.7767 65.9357C91.7996 65.9303 91.8364 65.9218 91.8868 65.9107C91.9876 65.8885 92.1427 65.8558 92.3496 65.8164C92.7634 65.7376 93.3841 65.6323 94.1919 65.531C95.8076 65.3284 98.1697 65.1422 101.119 65.2166C107.016 65.3654 115.26 66.556 124.583 70.7419L125.566 68.5524C115.909 64.217 107.345 62.9729 101.18 62.8174C98.0975 62.7396 95.6147 62.9338 93.8933 63.1497C93.0324 63.2576 92.3616 63.371 91.9009 63.4587C91.6705 63.5025 91.4927 63.54 91.3698 63.5671C91.3084 63.5806 91.2607 63.5916 91.2271 63.5995C91.2103 63.6034 91.197 63.6066 91.1873 63.609C91.1824 63.6102 91.1784 63.6111 91.1754 63.6119C91.1738 63.6123 91.1725 63.6126 91.1714 63.6129C91.1708 63.613 91.1702 63.6132 91.1699 63.6132C91.1693 63.6134 91.1688 63.6135 91.4593 64.7778ZM125.527 70.7587C142.937 63.6788 155.673 63.6351 165.003 67.4258C174.337 71.218 180.507 78.9464 184.576 87.9244C192.739 105.938 192.212 128.478 192.046 132.142L194.443 132.251C194.612 128.544 195.177 105.504 186.762 86.9337C182.54 77.6193 176.003 69.3043 165.907 65.2023C155.807 61.099 142.39 61.3105 124.623 68.5355L125.527 70.7587ZM192.046 132.142C192.038 132.304 192.032 132.425 192.027 132.504C192.025 132.544 192.023 132.571 192.022 132.586C192.021 132.594 192.021 132.593 192.022 132.587C192.022 132.586 192.023 132.574 192.025 132.557C192.026 132.549 192.029 132.53 192.033 132.505C192.035 132.493 192.039 132.47 192.046 132.442C192.05 132.424 192.065 132.357 192.098 132.274C192.112 132.237 192.151 132.141 192.226 132.032C192.264 131.976 192.504 131.619 193.003 131.529C193.65 131.413 194.051 131.827 194.172 131.987C194.294 132.148 194.344 132.301 194.358 132.344C194.393 132.454 194.404 132.545 194.406 132.561C194.41 132.595 194.412 132.621 194.413 132.635C194.414 132.663 194.415 132.684 194.415 132.692C194.415 132.702 194.415 132.71 194.415 132.714C194.415 132.728 194.414 132.735 194.415 132.728C194.415 132.717 194.416 132.693 194.418 132.653C194.423 132.575 194.43 132.451 194.442 132.278L192.047 132.116C192.035 132.296 192.027 132.432 192.022 132.524C192.019 132.569 192.018 132.607 192.016 132.637C192.016 132.649 192.015 132.671 192.015 132.694C192.015 132.698 192.014 132.737 192.017 132.784C192.018 132.798 192.02 132.825 192.024 132.859C192.026 132.876 192.037 132.967 192.073 133.077C192.086 133.12 192.136 133.273 192.258 133.434C192.379 133.594 192.78 134.008 193.428 133.891C193.927 133.802 194.167 133.445 194.205 133.389C194.28 133.28 194.319 133.184 194.333 133.147C194.366 133.064 194.381 132.996 194.385 132.978C194.392 132.949 194.396 132.926 194.398 132.913C194.403 132.888 194.405 132.867 194.406 132.858C194.409 132.838 194.411 132.821 194.411 132.813C194.413 132.795 194.414 132.777 194.415 132.763C194.418 132.732 194.42 132.693 194.423 132.647C194.429 132.554 194.436 132.421 194.443 132.251L192.046 132.142ZM194.442 132.278C194.45 132.151 194.461 131.999 194.474 131.82L192.081 131.642C192.067 131.825 192.056 131.983 192.047 132.116L194.442 132.278ZM125.075 30.8L125.047 30.8L125.047 33.2L125.075 33.2L125.075 30.8ZM178.438 52.6404C165.212 36.7119 145.973 30.8 125.075 30.8L125.075 33.2C145.54 33.2 163.974 38.9788 176.591 54.1735L178.438 52.6404ZM195.601 131.904C198.437 93.8748 191.618 68.5139 178.438 52.6404L176.591 54.1735C189.209 69.3695 196.021 93.9977 193.208 131.725L195.601 131.904ZM195.578 132.222C195.585 132.128 195.592 132.022 195.601 131.904L193.208 131.725C193.199 131.847 193.191 131.956 193.184 132.054L195.578 132.222ZM195.57 132.342C195.572 132.304 195.575 132.264 195.578 132.222L193.184 132.054C193.181 132.098 193.178 132.14 193.175 132.179L195.57 132.342ZM195.551 132.714C195.556 132.617 195.564 132.483 195.571 132.315L193.174 132.206C193.166 132.365 193.16 132.487 193.155 132.571L195.551 132.714ZM195.542 132.846C195.545 132.808 195.548 132.763 195.551 132.714L193.155 132.571C193.152 132.614 193.15 132.647 193.149 132.669L195.542 132.846ZM195.537 132.905L195.541 132.856L193.149 132.658L193.145 132.707L195.537 132.905ZM195.527 132.999C195.532 132.961 195.535 132.931 195.536 132.92L193.147 132.692C193.146 132.695 193.146 132.695 193.146 132.696C193.146 132.698 193.146 132.698 193.146 132.698L195.527 132.999ZM195.511 133.105C195.52 133.056 195.525 133.016 195.527 132.999L193.146 132.698C193.146 132.698 193.146 132.698 193.146 132.698C193.146 132.697 193.146 132.697 193.146 132.697C193.146 132.697 193.146 132.697 193.146 132.697C193.146 132.697 193.146 132.697 193.146 132.697L195.511 133.105ZM195.504 133.147C195.507 133.13 195.509 133.115 195.511 133.104L193.146 132.697C193.146 132.697 193.146 132.696 193.146 132.696L195.504 133.147ZM195.486 133.229C195.493 133.198 195.499 133.171 195.503 133.148L193.147 132.695C193.147 132.694 193.147 132.694 193.147 132.693L195.486 133.229ZM195.386 133.556C195.448 133.396 195.478 133.265 195.486 133.229L193.147 132.693C193.146 132.695 193.147 132.695 193.147 132.694C193.147 132.694 193.147 132.693 193.147 132.692C193.148 132.691 193.148 132.69 193.148 132.689C193.148 132.688 193.148 132.688 193.149 132.687C193.149 132.686 193.149 132.685 193.15 132.683L195.386 133.556ZM195.137 134.026C195.282 133.815 195.357 133.629 195.386 133.556L193.15 132.683C193.149 132.685 193.15 132.683 193.151 132.681C193.152 132.679 193.152 132.678 193.153 132.677C193.154 132.675 193.155 132.672 193.158 132.668L195.137 134.026ZM193.628 135.001C194.599 134.826 195.064 134.133 195.137 134.025L193.158 132.668C193.152 132.677 193.155 132.673 193.157 132.67C193.159 132.667 193.161 132.664 193.163 132.662C193.166 132.658 193.168 132.656 193.17 132.655C193.172 132.653 193.177 132.649 193.184 132.646C193.192 132.642 193.199 132.64 193.203 132.639L193.628 135.001ZM191.356 134.113C191.575 134.402 192.353 135.231 193.628 135.001L193.203 132.639C193.199 132.64 193.2 132.639 193.205 132.639C193.211 132.639 193.218 132.64 193.226 132.641C193.244 132.645 193.255 132.65 193.26 132.653C193.263 132.655 193.262 132.654 193.259 132.652C193.258 132.651 193.258 132.651 193.259 132.652C193.26 132.653 193.264 132.657 193.271 132.666L191.356 134.113ZM190.997 133.421C191.024 133.507 191.12 133.801 191.356 134.113L193.271 132.666C193.273 132.669 193.275 132.672 193.276 132.673C193.277 132.675 193.277 132.676 193.278 132.678C193.279 132.679 193.28 132.682 193.281 132.685C193.281 132.686 193.282 132.688 193.282 132.689C193.283 132.69 193.283 132.691 193.282 132.688L190.997 133.421ZM190.903 132.998C190.909 133.045 190.93 133.215 190.997 133.421L193.282 132.687C193.283 132.69 193.283 132.692 193.283 132.692C193.284 132.693 193.284 132.694 193.284 132.694C193.284 132.695 193.284 132.697 193.285 132.699C193.285 132.7 193.285 132.702 193.285 132.703C193.285 132.704 193.285 132.705 193.285 132.704L190.903 132.998ZM190.89 132.855C190.892 132.883 190.896 132.936 190.904 133L193.285 132.702C193.285 132.703 193.285 132.703 193.285 132.703C193.285 132.702 193.285 132.703 193.285 132.704L190.89 132.855ZM190.885 132.683C190.885 132.7 190.885 132.769 190.89 132.854L193.285 132.705C193.285 132.706 193.285 132.707 193.285 132.706C193.285 132.706 193.285 132.706 193.285 132.706C193.285 132.705 193.285 132.705 193.285 132.706C193.285 132.706 193.285 132.707 193.285 132.708C193.285 132.708 193.285 132.709 193.285 132.709L190.885 132.683ZM190.887 132.626C190.886 132.642 190.886 132.664 190.885 132.686L193.285 132.705C193.285 132.705 193.285 132.704 193.285 132.702C193.285 132.7 193.285 132.698 193.286 132.697L190.887 132.626ZM190.888 132.595C190.887 132.603 190.887 132.613 190.887 132.626L193.286 132.697C193.286 132.692 193.286 132.688 193.286 132.684L190.888 132.595ZM190.891 132.519C190.89 132.545 190.888 132.571 190.888 132.595L193.286 132.685C193.286 132.674 193.287 132.658 193.288 132.638L190.891 132.519ZM190.894 132.463C190.893 132.482 190.892 132.501 190.891 132.519L193.288 132.638C193.289 132.624 193.289 132.609 193.29 132.593L190.894 132.463ZM190.919 132.053C190.907 132.23 190.899 132.367 190.894 132.463L193.29 132.592C193.295 132.51 193.302 132.384 193.314 132.214L190.919 132.053ZM183.546 88.3889C191.583 106.122 191.084 128.398 190.918 132.079L193.315 132.187C193.483 128.462 194.021 105.687 185.732 87.3982L183.546 88.3889ZM164.577 68.4699C173.552 72.1162 179.549 79.5687 183.546 88.3889L185.732 87.3982C181.583 78.2413 175.218 70.2024 165.481 66.2464L164.577 68.4699ZM125.953 71.8027C143.195 64.7911 155.61 64.8265 164.577 68.4699L165.481 66.2464C155.744 62.2905 142.648 62.4227 125.049 69.5795L125.953 71.8027ZM125.505 71.985L125.953 71.8027L125.049 69.5795L124.601 69.7618L125.505 71.985ZM124.12 71.7699L124.561 71.9681L125.544 69.7786L125.103 69.5804L124.12 71.7699ZM101.09 66.3435C106.861 66.4891 114.953 67.6545 124.12 71.7699L125.103 69.5804C115.603 65.3155 107.19 64.0966 101.151 63.9443L101.09 66.3435ZM94.3327 66.6495C95.8985 66.4532 98.2038 66.2707 101.09 66.3435L101.151 63.9443C98.1316 63.8681 95.7057 64.0585 94.0341 64.2681L94.3327 66.6495ZM92.5612 66.9237C92.9529 66.8492 93.55 66.7476 94.3327 66.6495L94.0341 64.2681C93.1983 64.3729 92.5511 64.4825 92.1125 64.566L92.5612 66.9237ZM92.1306 67.0114C92.221 66.9915 92.3654 66.961 92.5612 66.9237L92.1125 64.566C91.8932 64.6077 91.7261 64.643 91.6137 64.6678L92.1306 67.0114ZM92.0358 67.0329C92.0538 67.0287 92.0855 67.0214 92.1306 67.0114L91.6137 64.6678C91.5573 64.6802 91.5148 64.69 91.4863 64.6967L92.0358 67.0329ZM92.0147 67.038L92.0391 67.0321L91.483 64.6975L91.4586 64.7033L92.0147 67.038ZM92.0162 67.0376L92.0195 67.0368L91.4539 64.7044L91.4506 64.7052L92.0162 67.0376ZM91.9762 67.0476L92.0239 67.0357L91.4428 64.7071L91.3951 64.719L91.9762 67.0476ZM91.8255 67.0762L91.8741 67.0684L91.4973 64.6982L91.4487 64.7059L91.8255 67.0762ZM72.2551 77.6946C76.6317 72.4153 82.8015 68.5112 91.8256 67.0762L91.4486 64.7059C81.864 66.2301 75.1659 70.4229 70.4074 76.1629L72.2551 77.6946ZM63.3427 97.4293C65.1284 89.9128 67.8291 83.0335 72.2551 77.6946L70.4074 76.1629C65.6504 81.9011 62.8354 89.1811 61.0077 96.8746L63.3427 97.4293ZM60.0094 119.5C60.7923 112.3 61.6244 104.662 63.3427 97.4293L61.0077 96.8746C59.2489 104.278 58.4035 112.067 57.6235 119.24L60.0094 119.5ZM59.9173 120.347C59.948 120.065 59.9787 119.783 60.0094 119.5L57.6235 119.24C57.5927 119.523 57.562 119.806 57.5314 120.087L59.9173 120.347ZM56.5353 139.851C58.3278 134.667 59.1196 127.668 59.9173 120.347L57.5314 120.087C56.7242 127.496 55.9524 134.193 54.267 139.066L56.5353 139.851ZM53.0056 140.274L55.2031 140.642L55.5992 138.275L53.4017 137.907L53.0056 140.274ZM61.7813 72.3802C52.4786 94.2377 52.0037 120.331 52.0037 139.091L54.4037 139.091C54.4037 120.29 54.9039 94.6679 63.9896 73.3201L61.7813 72.3802ZM83.6504 43.9562C73.3824 51.4134 66.4538 61.4017 61.7813 72.3802L63.9896 73.3201C68.5318 62.6478 75.2189 53.0458 85.0607 45.8981L83.6504 43.9562ZM124.959 30.8029C107.394 31.6763 93.9261 36.4934 83.6504 43.9562L85.0607 45.8981C94.9024 38.7505 107.903 34.0539 125.078 33.1999L124.959 30.8029ZM124.987 30.8015L124.959 30.8029L125.078 33.1999L125.106 33.1985L124.987 30.8015ZM90.9647 62.5031L90.9598 62.5042L91.5158 64.8389L91.5207 64.8377L90.9647 62.5031ZM91.126 62.4664C91.0593 62.4811 91.0066 62.4932 90.968 62.5023L91.5175 64.8385C91.5455 64.8319 91.5874 64.8223 91.643 64.81L91.126 62.4664ZM91.6892 62.3514C91.4478 62.3973 91.2592 62.437 91.126 62.4664L91.643 64.81C91.7542 64.7855 91.92 64.7505 92.138 64.7091L91.6892 62.3514ZM93.7524 62.0312C92.8666 62.1423 92.172 62.2595 91.6892 62.3514L92.138 64.7091C92.5739 64.6261 93.2183 64.517 94.051 64.4125L93.7524 62.0312ZM101.208 61.6905C98.0635 61.6111 95.5238 61.8091 93.7524 62.0312L94.051 64.4125C95.7166 64.2037 98.1357 64.0137 101.148 64.0897L101.208 61.6905ZM125.58 67.3243C115.949 63.0798 107.403 61.8468 101.208 61.6905L101.148 64.0897C107.079 64.2393 115.31 65.4206 124.612 69.5205L125.58 67.3243ZM166.332 64.1583C155.958 59.9433 142.363 60.1936 124.649 67.3088L125.543 69.5359C142.899 62.5646 155.818 62.4767 165.429 66.3818L166.332 64.1583ZM187.791 86.4692C183.498 76.9974 176.788 68.4062 166.332 64.1583L165.429 66.3818C175.122 70.3198 181.465 78.3242 185.605 87.4599L187.791 86.4692ZM193.737 106.436C192.575 99.923 190.724 92.9411 187.791 86.4692L185.605 87.4599C188.432 93.6976 190.235 100.475 191.375 106.858L193.737 106.436ZM174.852 55.612C184.017 66.6497 190.147 83.0764 191.358 106.708L193.754 106.585C192.526 82.6121 186.291 65.6319 176.698 54.0788L174.852 55.612ZM125.103 35.4545C145.147 35.4598 162.813 41.1137 174.852 55.612L176.698 54.0788C164.051 38.8476 145.581 33.0599 125.103 33.0545L125.103 35.4545ZM86.3901 47.721C95.818 40.874 108.37 36.2924 125.163 35.4531L125.043 33.056C107.86 33.9149 94.8414 38.6171 84.9798 45.7791L86.3901 47.721ZM66.0691 74.2014C70.489 63.8164 76.9493 54.5775 86.3901 47.721L84.9798 45.7791C75.1129 52.945 68.411 62.5702 63.8608 73.2616L66.0691 74.2014ZM56.7743 127.68C57.1671 110.772 58.8902 91.0689 66.0691 74.2014L63.8608 73.2616C56.4953 90.5674 54.7693 110.652 54.375 127.624L56.7743 127.68ZM55.2854 119.843C54.9923 122.533 54.707 125.094 54.3853 127.493L56.764 127.812C57.0901 125.38 57.3783 122.792 57.6713 120.103L55.2854 119.843ZM55.3822 118.953C55.3498 119.251 55.3176 119.548 55.2854 119.843L57.6713 120.103C57.7035 119.807 57.7358 119.51 57.7682 119.212L55.3822 118.953ZM58.8094 96.3545C57.0172 103.898 56.1584 111.813 55.3822 118.953L57.7682 119.212C58.5471 112.047 59.3927 104.283 61.1444 96.9092L58.8094 96.3545ZM68.6667 74.7258C63.5987 80.8391 60.6765 88.4951 58.8094 96.3545L61.1444 96.9092C62.9694 89.2269 65.7773 81.9715 70.5143 76.2575L68.6667 74.7258ZM91.0482 62.4866C80.9582 64.101 73.7764 68.5621 68.6667 74.7258L70.5143 76.2575C75.2429 70.5536 81.8973 66.3813 91.4274 64.8565L91.0482 62.4866ZM56.7633 166.599C57.7868 169.685 59.9597 174.098 64.8548 177.295L66.1671 175.285C61.8806 172.486 59.9627 168.622 59.0413 165.844L56.7633 166.599ZM54.5207 134.773C50.8284 143.528 52.595 154.031 56.7633 166.599L59.0413 165.844C54.8868 153.317 53.4117 143.579 56.7321 135.706L54.5207 134.773ZM68.9312 121.009C62.9871 123.766 57.3231 128.129 54.5207 134.773L56.7321 135.706C59.2195 129.808 64.3067 125.799 69.9411 123.186L68.9312 121.009ZM86.1977 116.658C81.3373 116.984 74.8768 118.251 68.9312 121.009L69.9411 123.186C75.5683 120.576 81.7301 119.363 86.3585 119.052L86.1977 116.658ZM116.829 135.188C114.144 123.599 102.376 115.092 86.1625 116.661L86.3936 119.049C101.651 117.574 112.129 125.537 114.491 135.73L116.829 135.188ZM111.291 170.078C117.778 163.022 120.728 152.012 116.829 135.188L114.491 135.73C118.276 152.064 115.305 162.166 109.524 168.454L111.291 170.078ZM87.8515 180.712C95.6081 179.606 104.93 176.997 111.291 170.078L109.524 168.454C103.736 174.75 95.1052 177.254 87.5127 178.336L87.8515 180.712ZM64.8548 177.295C69.7596 180.498 77.048 182.253 87.8516 180.712L87.5127 178.336C77.1085 179.82 70.4527 178.084 66.1671 175.285L64.8548 177.295ZM107.845 166.914C102.582 172.639 94.5869 175.045 87.1522 176.105L87.491 178.481C95.0897 177.397 103.776 174.887 109.612 168.538L107.845 166.914ZM112.29 136.198C115.966 152.06 112.983 161.326 107.845 166.914L109.612 168.538C115.455 162.182 118.418 152.01 114.628 135.657L112.29 136.198ZM86.6376 121.295C100.997 119.9 110.237 127.34 112.29 136.198L114.628 135.657C112.253 125.407 101.727 117.417 86.4055 118.906L86.6376 121.295ZM86.6203 121.296L86.6372 121.295L86.4058 118.906L86.3889 118.908L86.6203 121.296ZM86.5678 121.3L86.5847 121.299L86.4244 118.905L86.4075 118.906L86.5678 121.3ZM70.925 125.233C76.2647 122.756 82.1562 121.595 86.5675 121.3L86.4077 118.906C81.7641 119.216 75.5735 120.431 69.9151 123.056L70.925 125.233ZM58.8174 136.613C61.0167 131.398 65.5772 127.714 70.925 125.233L69.9151 123.056C64.2569 125.68 59.1201 129.719 56.606 135.68L58.8174 136.613ZM61.1853 165.172C57.0463 152.692 55.8412 143.67 58.8174 136.613L56.606 135.68C53.2578 143.619 54.7547 153.407 58.9073 165.927L61.1853 165.172ZM67.3799 173.406C63.6821 170.991 62.0095 167.657 61.1853 165.172L58.9073 165.927C59.8339 168.721 61.7617 172.604 66.0676 175.416L67.3799 173.406ZM87.1522 176.105C77.1195 177.536 71.068 175.815 67.3799 173.406L66.0676 175.416C70.3745 178.229 77.0585 179.969 87.491 178.481L87.1522 176.105ZM190.909 165.843C189.987 168.621 188.068 172.485 183.781 175.285L185.093 177.294C189.989 174.097 192.163 169.685 193.187 166.599L190.909 165.843ZM193.224 135.706C196.543 143.579 195.066 153.317 190.909 165.843L193.187 166.599C197.358 154.032 199.127 143.528 195.436 134.774L193.224 135.706ZM180.018 123.186C185.652 125.8 190.738 129.809 193.224 135.706L195.436 134.774C192.635 128.129 186.971 123.766 181.028 121.009L180.018 123.186ZM163.601 119.053C168.23 119.364 174.391 120.576 180.018 123.186L181.028 121.009C175.083 118.252 168.622 116.985 163.762 116.658L163.601 119.053ZM135.464 135.73C137.828 125.537 148.308 117.574 163.566 119.05L163.797 116.661C147.583 115.093 135.814 123.6 133.126 135.188L135.464 135.73ZM140.424 168.454C134.644 162.165 131.675 152.064 135.464 135.73L133.126 135.188C129.224 152.011 132.171 163.021 138.658 170.078L140.424 168.454ZM162.434 178.336C154.841 177.253 146.211 174.749 140.424 168.454L138.658 170.078C145.017 176.997 154.339 179.606 162.095 180.712L162.434 178.336ZM183.781 175.285C179.494 178.083 172.838 179.819 162.434 178.336L162.095 180.712C172.898 182.252 180.187 180.497 185.093 177.294L183.781 175.285ZM140.336 168.537C146.172 174.886 154.857 177.396 162.456 178.48L162.795 176.104C155.36 175.044 147.366 172.638 142.103 166.913L140.336 168.537ZM135.327 135.657C131.534 152.01 134.494 162.182 140.336 168.537L142.103 166.913C136.967 161.325 133.986 152.061 137.665 136.199L135.327 135.657ZM163.554 118.907C148.231 117.418 137.704 125.408 135.327 135.657L137.665 136.199C139.72 127.341 148.961 119.9 163.321 121.295L163.554 118.907ZM163.57 118.908L163.553 118.907L163.322 121.295L163.339 121.297L163.57 118.908ZM163.552 118.906L163.535 118.905L163.374 121.3L163.391 121.301L163.552 118.906ZM180.043 123.056C174.386 120.432 168.195 119.216 163.551 118.906L163.391 121.301C167.803 121.596 173.694 122.757 179.034 125.234L180.043 123.056ZM193.35 135.681C190.838 129.72 185.701 125.681 180.043 123.056L179.034 125.234C184.381 127.714 188.941 131.399 191.139 136.613L193.35 135.681ZM191.043 165.927C195.198 153.407 196.697 143.619 193.35 135.681L191.139 136.613C194.114 143.67 192.907 152.692 188.765 165.171L191.043 165.927ZM183.881 175.415C188.187 172.603 190.116 168.721 191.043 165.927L188.765 165.171C187.94 167.656 186.267 170.991 182.568 173.406L183.881 175.415ZM162.456 178.48C172.889 179.968 179.573 178.228 183.881 175.415L182.568 173.406C178.88 175.814 172.827 177.535 162.795 176.104L162.456 178.48ZM112 130.028H138V127.628H112V130.028ZM137.001 128.164L135.501 130.418L137.499 131.747L138.999 129.493L137.001 128.164ZM136.5 129.883H113V132.283H136.5V129.883ZM114.097 130.596L113.097 128.342L110.903 129.315L111.903 131.569L114.097 130.596ZM35.2 203.432C35.2 199.268 37.7447 195.348 42.1673 192.414C46.5809 189.486 52.7479 187.636 59.62 187.636V185.236C52.3426 185.236 45.6995 187.191 40.8406 190.414C35.9905 193.632 32.8 198.21 32.8 203.432H35.2ZM35.2 205.86V203.432H32.8V205.86H35.2ZM34.0285 204.66H34V207.06H34.0285V204.66ZM35.2 206.669C35.2 206.426 35.2086 206.185 35.2256 205.945L32.8315 205.776C32.8106 206.072 32.8 206.37 32.8 206.669H35.2ZM35.2 218V206.669H32.8V218H35.2ZM36.44 216.8H34V219.2H36.44V216.8ZM35.24 206.669V218H37.64V206.669H35.24ZM59.62 190.092C53.0163 190.092 46.9833 191.866 42.5659 194.796C38.1574 197.721 35.24 201.894 35.24 206.669H37.64C37.64 202.952 39.9116 199.437 43.8926 196.796C47.8647 194.161 53.4217 192.492 59.62 192.492V190.092ZM191.38 190.092H59.62V192.492H191.38V190.092ZM215.76 206.669C215.76 201.894 212.843 197.721 208.434 194.796C204.017 191.866 197.984 190.092 191.38 190.092V192.492C197.578 192.492 203.135 194.161 207.107 196.796C211.088 199.437 213.36 202.952 213.36 206.669H215.76ZM217 216.8H214.56V219.2H217V216.8ZM191.38 187.636C198.252 187.636 204.419 189.486 208.833 192.414C213.255 195.348 215.8 199.268 215.8 203.432H218.2C218.2 198.21 215.009 193.632 210.159 190.414C205.3 187.191 198.657 185.236 191.38 185.236V187.636ZM59.62 187.636H191.38V185.236H59.62V187.636ZM213.401 196.279C209.426 190.596 200.953 186.855 191.38 186.855V189.255C200.449 189.255 208.048 192.813 211.435 197.655L213.401 196.279ZM191.38 186.855H59.62V189.255H191.38V186.855ZM59.62 186.855C50.0468 186.855 41.5738 190.596 37.5987 196.279L39.5653 197.655C42.9523 192.813 50.5512 189.255 59.62 189.255V186.855ZM39.4096 197.836C43.7676 193.685 51.143 190.874 59.62 190.874V188.474C50.6718 188.474 42.6536 191.432 37.7544 196.098L39.4096 197.836ZM59.62 190.874H191.38V188.474H59.62V190.874ZM191.38 190.874C199.857 190.874 207.232 193.685 211.59 197.836L213.246 196.098C208.346 191.432 200.328 188.474 191.38 188.474V190.874ZM215.76 218V206.669H213.36V218H215.76ZM215.8 203.432V218H218.2V203.432H215.8Z" fill="white" mask="url(#path-2-outside-1_448_44)"/>
<path fill-rule="evenodd" clip-rule="evenodd" d="M155.534 141.027C155.71 140.77 156.061 140.704 156.319 140.88L177.782 155.535C178.039 155.711 178.105 156.061 177.929 156.318C177.753 156.575 177.401 156.641 177.144 156.465L155.681 141.811C155.424 141.635 155.358 141.284 155.534 141.027Z" fill="white"/>
<path fill-rule="evenodd" clip-rule="evenodd" d="M166.834 138.768C167.012 138.513 167.365 138.451 167.62 138.629L178.916 146.52C179.172 146.699 179.234 147.05 179.055 147.305C178.876 147.56 178.524 147.622 178.269 147.444L166.972 139.553C166.717 139.374 166.655 139.023 166.834 138.768Z" fill="white"/>
<path d="M156.601 140.467C156.116 140.136 155.454 140.26 155.121 140.744C154.789 141.23 154.914 141.892 155.399 142.224L176.862 156.878C177.347 157.209 178.009 157.086 178.341 156.601C178.674 156.116 178.549 155.453 178.064 155.122L156.601 140.467ZM167.906 138.219C167.425 137.883 166.762 138 166.424 138.481C166.086 138.962 166.204 139.626 166.686 139.963L177.982 147.853C178.464 148.19 179.127 148.073 179.465 147.592C179.802 147.111 179.685 146.447 179.203 146.11L167.906 138.219Z" stroke="white"/>
<path fill-rule="evenodd" clip-rule="evenodd" d="M69.643 143.348C69.7825 143.07 70.1218 142.957 70.4008 143.096L92.9934 154.369C93.2724 154.508 93.3855 154.846 93.246 155.125C93.1065 155.403 92.7672 155.516 92.4882 155.377L69.8956 144.104C69.6166 143.965 69.5035 143.626 69.643 143.348Z" fill="white"/>
<path fill-rule="evenodd" clip-rule="evenodd" d="M74.1615 152.366C74.301 152.088 74.6403 151.975 74.9193 152.114L92.9934 161.132C93.2724 161.271 93.3855 161.61 93.246 161.888C93.1065 162.167 92.7672 162.28 92.4882 162.141L74.4141 153.122C74.1351 152.983 74.022 152.645 74.1615 152.366Z" fill="white"/>
<path d="M70.624 142.648C70.0987 142.386 69.4593 142.598 69.196 143.124C68.9324 143.65 69.1465 144.289 69.6724 144.552L92.265 155.824C92.7902 156.086 93.4297 155.874 93.693 155.349L93.246 155.125L93.693 155.349C93.9566 154.823 93.7425 154.184 93.2166 153.921L70.624 142.648ZM75.1425 151.667C74.6173 151.405 73.9778 151.617 73.7145 152.142C73.4509 152.668 73.665 153.307 74.1909 153.57L92.265 162.588C92.7902 162.85 93.4297 162.638 93.693 162.112C93.9566 161.586 93.7425 160.947 93.2166 160.685L75.1425 151.667Z" stroke="white"/>
</svg>
